<svg width="50px" height="50px" xmlns="http://www.w3.org/2000/svg">

 <g>
  <title>background</title>
  <rect fill="none" id="canvas_background" height="402" width="582" y="-1" x="-1"/>
 </g>
 <g>
  <title>Layer 1</title>
  <circle id="svg_1" stroke-width="2" stroke-miterlimit="10" stroke-linecap="round" stroke="#ffffff" r="24" fill="none" cy="25" cx="25"/>
  <rect y="13.206874" x="16.310129" id="svg_2" width="50" height="50" fill="none"/>
  <path id="svg_3" stroke-width="2" stroke-miterlimit="10" stroke-linecap="round" stroke="#ffffff" fill="none" d="m29.933,35.528c-0.146,-1.612 -0.09,-2.737 -0.09,-4.21c0.73,-0.383 2.038,-2.825 2.259,-4.888c0.574,-0.047 1.479,-0.607 1.744,-2.818c0.143,-1.187 -0.425,-1.855 -0.771,-2.065c0.934,-2.809 2.874,-11.499 -3.588,-12.397c-0.665,-1.168 -2.368,-1.759 -4.581,-1.759c-8.854,0.163 -9.922,6.686 -7.981,14.156c-0.345,0.21 -0.913,0.878 -0.771,2.065c0.266,2.211 1.17,2.771 1.744,2.818c0.22,2.062 1.58,4.505 2.312,4.888c0,1.473 0.055,2.598 -0.091,4.21c-1.261,3.39 -7.737,3.655 -11.473,6.924c3.906,3.933 10.236,6.746 16.916,6.746s14.532,-5.274 15.839,-6.713c-3.713,-3.299 -10.204,-3.555 -11.468,-6.957z"/>
 </g>
</svg>
